<svg width="877" height="150" viewBox="0 0 877 150" fill="none" xmlns="http://www.w3.org/2000/svg">
<path d="M14.8969 86.2062C12.1093 66.4337 10.7154 56.5478 16.6395 50.1489C22.5636 43.75 33.1099 43.75 54.2024 43.75H95.7975C116.89 43.75 127.436 43.75 133.361 50.1489C139.284 56.5478 137.891 66.4337 135.103 86.2062L132.459 104.956C130.273 120.462 129.181 128.214 123.573 132.857C117.966 137.5 109.695 137.5 93.1537 137.5H56.846C40.3051 137.5 32.0346 137.5 26.4271 132.857C20.8197 128.214 19.7266 120.462 17.5405 104.956L14.8969 86.2062Z" stroke="url(#paint0_linear_176_141)" stroke-width="10"/>
<path opacity="0.5" d="M122.261 43.75C123.69 35.5952 117.415 28.125 109.136 28.125H40.862C32.5829 28.125 26.3079 35.5952 27.7368 43.75M109.375 28.125C109.552 26.5057 109.641 25.6959 109.642 25.0272C109.657 18.6295 104.837 13.254 98.4759 12.5714C97.8109 12.5 96.9965 12.5 95.3678 12.5H54.6314C53.0024 12.5 52.1879 12.5 51.5229 12.5714C45.1618 13.254 40.3428 18.6295 40.3568 25.0271C40.3582 25.6959 40.4469 26.5056 40.6242 28.125" stroke="#3684F8" stroke-width="10"/>
<path d="M92.5781 76.5341L98.5423 81.6597C103.965 86.3203 106.677 88.6505 106.677 91.6407C106.677 94.6309 103.965 96.9612 98.5423 101.622L92.5781 106.747" stroke="url(#paint1_linear_176_141)" stroke-width="10" stroke-linecap="round"/>
<path d="M81.9854 67.0352L75.0005 91.927L68.0156 116.819" stroke="url(#paint2_linear_176_141)" stroke-width="10" stroke-linecap="round"/>
<path d="M57.422 76.5341L51.4578 81.6597C46.0348 86.3203 43.3232 88.6505 43.3232 91.6407C43.3232 94.6309 46.0348 96.9612 51.4578 101.622L57.422 106.747" stroke="url(#paint3_linear_176_141)" stroke-width="10" stroke-linecap="round"/>
<path d="M236.18 109.08C227.06 109.08 219.26 105.87 212.78 99.45C206.36 92.97 203.15 85.17 203.15 76.05C203.15 66.93 206.36 59.16 212.78 52.74C219.26 46.26 227.06 43.02 236.18 43.02C242.72 43.02 248.63 44.61 253.91 47.79C259.19 50.97 263.24 55.2 266.06 60.48L253.46 67.32C249.62 60.36 243.86 56.88 236.18 56.88C231.02 56.88 226.61 58.77 222.95 62.55C219.35 66.33 217.55 70.83 217.55 76.05C217.55 81.27 219.35 85.77 222.95 89.55C226.61 93.33 231.02 95.22 236.18 95.22C243.86 95.22 249.62 91.74 253.46 84.78L266.06 91.62C263.24 96.9 259.19 101.13 253.91 104.31C248.63 107.49 242.72 109.08 236.18 109.08ZM310.876 102.24C306.256 106.74 300.676 108.99 294.136 108.99C287.596 108.99 282.016 106.74 277.396 102.24C272.776 97.68 270.466 92.1 270.466 85.5C270.466 78.9 272.776 73.35 277.396 68.85C282.016 64.29 287.596 62.01 294.136 62.01C300.676 62.01 306.256 64.29 310.876 68.85C315.496 73.35 317.806 78.9 317.806 85.5C317.806 92.1 315.496 97.68 310.876 102.24ZM286.936 93.33C288.856 95.31 291.256 96.3 294.136 96.3C297.016 96.3 299.386 95.31 301.246 93.33C303.166 91.35 304.126 88.74 304.126 85.5C304.126 82.26 303.166 79.65 301.246 77.67C299.386 75.69 297.016 74.7 294.136 74.7C291.256 74.7 288.856 75.69 286.936 77.67C285.076 79.65 284.146 82.26 284.146 85.5C284.146 88.74 285.076 91.35 286.936 93.33ZM382.506 108V84.69C382.506 77.79 380.346 74.34 376.026 74.34C370.866 74.34 368.166 78.09 367.926 85.59V108H354.336V84.69C354.336 77.79 352.176 74.34 347.856 74.34C345.336 74.34 343.356 75.33 341.916 77.31C340.476 79.23 339.756 82.17 339.756 86.13V108H326.166V63H339.756V67.59C342.636 63.87 346.476 62.01 351.276 62.01C357.576 62.01 362.196 64.65 365.136 69.93C366.456 67.35 368.436 65.4 371.076 64.08C373.716 62.7 376.356 62.01 378.996 62.01C384.456 62.01 388.656 63.81 391.596 67.41C394.596 71.01 396.096 75.99 396.096 82.35V108H382.506ZM420.264 126.81H406.674V63H420.264V67.5C421.224 66.06 422.814 64.8 425.034 63.72C427.254 62.58 429.744 62.01 432.504 62.01C438.324 62.01 443.244 64.32 447.264 68.94C451.344 73.56 453.384 79.08 453.384 85.5C453.384 91.92 451.344 97.44 447.264 102.06C443.244 106.68 438.324 108.99 432.504 108.99C429.744 108.99 427.254 108.45 425.034 107.37C422.814 106.23 421.224 104.94 420.264 103.5V126.81ZM421.974 93.51C423.894 95.61 426.384 96.66 429.444 96.66C432.504 96.66 434.964 95.61 436.824 93.51C438.744 91.41 439.704 88.74 439.704 85.5C439.704 82.26 438.744 79.59 436.824 77.49C434.964 75.39 432.504 74.34 429.444 74.34C426.384 74.34 423.894 75.39 421.974 77.49C420.114 79.59 419.184 82.26 419.184 85.5C419.184 88.74 420.114 91.41 421.974 93.51ZM499.489 102.24C494.869 106.74 489.289 108.99 482.749 108.99C476.209 108.99 470.629 106.74 466.009 102.24C461.389 97.68 459.079 92.1 459.079 85.5C459.079 78.9 461.389 73.35 466.009 68.85C470.629 64.29 476.209 62.01 482.749 62.01C489.289 62.01 494.869 64.29 499.489 68.85C504.109 73.35 506.419 78.9 506.419 85.5C506.419 92.1 504.109 97.68 499.489 102.24ZM475.549 93.33C477.469 95.31 479.869 96.3 482.749 96.3C485.629 96.3 487.999 95.31 489.859 93.33C491.779 91.35 492.739 88.74 492.739 85.5C492.739 82.26 491.779 79.65 489.859 77.67C487.999 75.69 485.629 74.7 482.749 74.7C479.869 74.7 477.469 75.69 475.549 77.67C473.689 79.65 472.759 82.26 472.759 85.5C472.759 88.74 473.689 91.35 475.549 93.33ZM514.779 108V63H528.369V67.59C530.949 63.87 535.119 62.01 540.879 62.01C546.339 62.01 550.599 63.84 553.659 67.5C556.779 71.16 558.339 75.99 558.339 81.99V108H544.749V84.33C544.749 77.67 542.319 74.34 537.459 74.34C534.759 74.34 532.569 75.33 530.889 77.31C529.209 79.29 528.369 82.23 528.369 86.13V108H514.779ZM590.16 108.99C583.38 108.99 577.68 106.86 573.06 102.6C568.5 98.28 566.22 92.58 566.22 85.5C566.22 78.78 568.47 73.2 572.97 68.76C577.47 64.26 583.11 62.01 589.89 62.01C596.19 62.01 601.5 63.93 605.82 67.77C610.14 71.61 612.3 77.01 612.3 83.97C612.3 85.71 612.21 87.3 612.03 88.74H579.36C579.72 91.32 580.95 93.3 583.05 94.68C585.15 96 587.58 96.66 590.34 96.66C592.8 96.66 594.99 96.18 596.91 95.22C598.83 94.2 600.27 92.97 601.23 91.53L611.31 99.09C609.15 102.15 606.24 104.58 602.58 106.38C598.92 108.12 594.78 108.99 590.16 108.99ZM579.72 79.83H598.8C598.26 77.61 597.12 75.93 595.38 74.79C593.64 73.65 591.69 73.08 589.53 73.08C587.25 73.08 585.18 73.65 583.32 74.79C581.46 75.87 580.26 77.55 579.72 79.83ZM620.863 108V63H634.453V67.59C637.033 63.87 641.203 62.01 646.963 62.01C652.423 62.01 656.683 63.84 659.743 67.5C662.863 71.16 664.423 75.99 664.423 81.99V108H650.833V84.33C650.833 77.67 648.403 74.34 643.543 74.34C640.843 74.34 638.653 75.33 636.973 77.31C635.293 79.29 634.453 82.23 634.453 86.13V108H620.863ZM697.426 108.54C692.146 108.54 687.796 107.1 684.376 104.22C681.016 101.28 679.336 97.05 679.336 91.53V74.79H670.336V63H679.336V50.49H692.926V63H705.526V74.79H692.926V88.74C692.926 91.44 693.526 93.39 694.726 94.59C695.926 95.79 697.876 96.39 700.576 96.39C702.616 96.39 704.266 96.12 705.526 95.58V107.64C703.546 108.24 700.846 108.54 697.426 108.54ZM729.595 108.99C721.255 108.99 715.015 106.29 710.875 100.89L719.875 92.7C722.035 95.82 725.275 97.38 729.595 97.38C732.355 97.38 733.735 96.54 733.735 94.86C733.735 94.08 733.375 93.45 732.655 92.97C731.935 92.43 730.465 91.89 728.245 91.35L725.275 90.63C721.015 89.61 717.775 87.81 715.555 85.23C713.395 82.65 712.375 79.53 712.495 75.87C712.615 71.73 714.265 68.4 717.445 65.88C720.685 63.3 724.795 62.01 729.775 62.01C736.735 62.01 742.015 64.5 745.615 69.48L736.795 76.77C734.875 74.37 732.505 73.17 729.685 73.17C727.225 73.17 725.995 73.95 725.995 75.51C725.995 76.95 727.255 78.03 729.775 78.75L733.915 79.83C738.235 80.97 741.505 82.68 743.725 84.96C746.005 87.18 747.145 90.21 747.145 94.05C747.145 98.31 745.435 101.88 742.015 104.76C738.655 107.58 734.515 108.99 729.595 108.99ZM796.033 108L770.023 79.38V108H755.803V44.1H770.023V70.83L791.713 44.1H809.263L784.063 74.79L814.393 108H796.033ZM824.4 56.88C822.12 56.88 820.14 56.07 818.46 54.45C816.78 52.77 815.94 50.76 815.94 48.42C815.94 46.08 816.78 44.1 818.46 42.48C820.14 40.8 822.12 39.96 824.4 39.96C826.8 39.96 828.81 40.8 830.43 42.48C832.11 44.1 832.95 46.08 832.95 48.42C832.95 50.76 832.11 52.77 830.43 54.45C828.81 56.07 826.8 56.88 824.4 56.88ZM817.65 108V63H831.24V108H817.65ZM865.385 108.54C860.105 108.54 855.755 107.1 852.335 104.22C848.975 101.28 847.295 97.05 847.295 91.53V74.79H838.295V63H847.295V50.49H860.885V63H873.485V74.79H860.885V88.74C860.885 91.44 861.485 93.39 862.685 94.59C863.885 95.79 865.835 96.39 868.535 96.39C870.575 96.39 872.225 96.12 873.485 95.58V107.64C871.505 108.24 868.805 108.54 865.385 108.54Z" fill="black"/>
<defs>
<linearGradient id="paint0_linear_176_141" x1="75" y1="43.75" x2="75" y2="137.5" gradientUnits="userSpaceOnUse">
<stop stop-color="#3684F8"/>
<stop offset="1" stop-color="#A920FD"/>
</linearGradient>
<linearGradient id="paint1_linear_176_141" x1="99.6275" y1="76.5341" x2="99.6275" y2="106.747" gradientUnits="userSpaceOnUse">
<stop stop-color="#3684F8"/>
<stop offset="1" stop-color="#A920FD"/>
</linearGradient>
<linearGradient id="paint2_linear_176_141" x1="82.4697" y1="67.1591" x2="69.6563" y2="117.239" gradientUnits="userSpaceOnUse">
<stop stop-color="#3684F8"/>
<stop offset="1" stop-color="#A920FD"/>
</linearGradient>
<linearGradient id="paint3_linear_176_141" x1="50.3726" y1="76.5341" x2="50.3726" y2="106.747" gradientUnits="userSpaceOnUse">
<stop stop-color="#3684F8"/>
<stop offset="1" stop-color="#A920FD"/>
</linearGradient>
</defs>
</svg>
